<svg width="756" height="685" fill="none" xmlns="http://www.w3.org/2000/svg"><g filter="url(#a)"><path fill-rule="evenodd" clip-rule="evenodd" d="M563.198 120.288c59.837 27.419 152.051 12.533 179.41 72.398 25.222 55.189-47.908 107.583-71.603 163.495-22.382 52.812-31.27 108.807-63.817 156.045-43.949 63.787-79.802 167.056-157.189 164.719-80.594-2.434-112.901-109.201-160.401-174.31-29.629-40.614-29.983-96.167-63.957-133.222-51.535-56.207-152.415-62.178-180.291-133.17C17.035 164.134 17.08 48.831 85.276 11.95c81.101-43.86 172.87 47.088 264.13 59.856 38.593 5.4 76.352-15.517 114.353-6.9 37.773 8.566 64.233 39.249 99.439 55.382Z" fill="url(#b)"/></g><g filter="url(#c)"><path fill-rule="evenodd" clip-rule="evenodd" d="M258.08 160.021c42.346-.932 79.4 29.209 110.859 57.596 27.93 25.203 35.42 64.487 57.887 94.67 26.217 35.22 85.982 53.597 85.166 97.51-.822 44.205-64.066 58.772-88.753 95.437-22.323 33.156-12.608 89.123-47.997 107.67-35.763 18.743-76.803-20.179-117.162-21.112-39.042-.902-76.697 27.076-114.08 15.768-39.364-11.906-68.463-45.018-92.657-78.3C25.44 493.625 2.421 453.811.241 409.797c-2.22-44.832 10.903-91.454 38.919-126.504 26.782-33.506 73.477-39.817 110.842-60.856 36.878-20.766 65.774-61.485 108.078-62.416Z" fill="url(#d)"/></g><path d="M198.84 252.4c-2.987 0-6.4-.267-10.24-.8a50.218 50.218 0 0 1-11.2-2.56c-3.627-1.28-6.667-3.2-9.12-5.76-2.347-2.56-3.52-5.92-3.52-10.08 0-2.773.693-5.173 2.08-7.2 1.387-2.133 3.627-3.2 6.72-3.2 1.92 0 3.413.48 4.48 1.44 1.067.96 1.973 2.133 2.72 3.52a75.3 75.3 0 0 0 2.88 4.32c1.173 1.387 2.72 2.56 4.64 3.52 2.027.96 4.747 1.44 8.16 1.44 2.453 0 5.12-.267 8-.8 2.987-.64 5.547-1.76 7.68-3.36 2.133-1.6 3.2-3.787 3.2-6.56 0-2.453-1.013-4.373-3.04-5.76-2.027-1.493-4.64-2.773-7.84-3.84-3.2-1.067-6.56-2.133-10.08-3.2a65.101 65.101 0 0 1-10.08-4.32c-3.2-1.707-5.813-3.947-7.84-6.72-2.027-2.88-3.04-6.56-3.04-11.04 0-4.16 1.013-7.733 3.04-10.72 2.027-2.987 4.64-5.44 7.84-7.36a35.006 35.006 0 0 1 10.56-4.32c3.84-.96 7.52-1.44 11.04-1.44 2.027 0 4.373.267 7.04.8a34.49 34.49 0 0 1 7.84 2.24c2.56 1.067 4.693 2.56 6.4 4.48 1.707 1.813 2.56 4.107 2.56 6.88 0 4.907-2.453 7.36-7.36 7.36h-2.08c-3.2-1.813-5.92-3.2-8.16-4.16s-4.8-1.44-7.68-1.44c-1.28 0-3.093.16-5.44.48-2.24.213-4.267.8-6.08 1.76-1.813.96-2.72 2.507-2.72 4.64 0 1.813 1.013 3.307 3.04 4.48 2.027 1.173 4.64 2.293 7.84 3.36 3.2 1.067 6.56 2.24 10.08 3.52a51.991 51.991 0 0 1 10.08 4.96c3.2 1.92 5.813 4.373 7.84 7.36s3.04 6.72 3.04 11.2c0 6.507-1.653 11.733-4.96 15.68-3.2 3.947-7.36 6.827-12.48 8.64-5.013 1.707-10.293 2.56-15.84 2.56Zm62.069-4c-2.347 0-4.427-.747-6.24-2.24-1.707-1.6-2.56-3.573-2.56-5.92 0-3.52.106-6.933.32-10.24.32-3.307.48-6.667.48-10.08v-10.56c0-4.373-.16-8.693-.48-12.96a59.774 59.774 0 0 0-2.08-12.96c-.427-1.28-.8-2.613-1.12-4a31.542 31.542 0 0 1-.32-4.48c0-2.133.533-4.267 1.6-6.4 1.066-2.24 2.986-3.36 5.76-3.36 2.24 0 4.053.853 5.44 2.56 1.386 1.6 2.453 3.627 3.2 6.08a41.402 41.402 0 0 1 1.6 7.2c.426 2.347.8 4.32 1.12 5.92.213 1.387.533 2.88.96 4.48.426 1.6.64 3.147.64 4.64 0 .107.106.427.32.96l.64 1.6a448.57 448.57 0 0 1 4.64-8 68.355 68.355 0 0 1 5.92-8.32c2.24-2.667 4.693-4.853 7.36-6.56 2.773-1.707 5.813-2.56 9.12-2.56 3.413 0 5.973.853 7.68 2.56 1.813 1.6 3.253 3.627 4.32 6.08l3.2 7.04c.426 1.067.693 2.187.8 3.36.106 1.067.373 2.187.8 3.36l1.76-2.56a431.838 431.838 0 0 1 7.2-9.76c2.773-3.627 5.866-6.72 9.28-9.28 3.413-2.667 7.253-4 11.52-4 3.413 0 6.293 1.013 8.64 3.04 2.453 1.92 4.426 4.427 5.92 7.52a40.012 40.012 0 0 1 3.52 9.6c.746 3.307 1.12 6.347 1.12 9.12v33.92c0 1.6-.267 3.36-.8 5.28a11.352 11.352 0 0 1-2.4 4.8c-1.174 1.28-2.827 1.92-4.96 1.92-2.454 0-4.427-.853-5.92-2.56-1.494-1.707-2.24-3.52-2.24-5.44v-29.12c0-.32-.054-1.013-.16-2.08a42.68 42.68 0 0 0-.48-3.36c-.107-1.173-.16-2.027-.16-2.56 0-.853-.107-2.187-.32-4a20.052 20.052 0 0 0-1.28-5.12c-.64-1.6-1.6-2.4-2.88-2.4h-1.44c-3.2 2.773-5.6 5.44-7.2 8-1.6 2.453-2.827 4.907-3.68 7.36a113.75 113.75 0 0 0-2.4 7.84c-.747 2.667-1.814 5.6-3.2 8.8-.747 2.773-1.974 5.387-3.68 7.84-1.6 2.347-3.84 3.52-6.72 3.52-2.774 0-4.907-.747-6.4-2.24-1.387-1.6-2.454-3.52-3.2-5.76a92.97 92.97 0 0 1-1.6-6.4c-.214-.96-.587-2.56-1.12-4.8-.534-2.24-1.12-4.693-1.76-7.36a300.015 300.015 0 0 0-1.6-7.52c-.534-2.453-.907-4.267-1.12-5.44-.64-.96-1.28-1.44-1.92-1.44-.96 0-1.974.693-3.04 2.08-1.067 1.387-1.867 2.72-2.4 4-.64.96-1.547 2.667-2.72 5.12a390.057 390.057 0 0 0-3.36 6.88l-1.92 4.48c-.214.64-.854 2.187-1.92 4.64-.96 2.453-2.08 5.28-3.36 8.48-1.28 3.093-2.454 5.92-3.52 8.48-1.067 2.56-1.76 4.267-2.08 5.12a55.647 55.647 0 0 1-3.36 5.6c-1.067 1.707-2.987 2.56-5.76 2.56Zm149.765 3.2c-4.907 0-9.494-1.12-13.76-3.36-4.267-2.24-7.84-5.227-10.72-8.96-2.88-3.84-4.747-8.16-5.6-12.96v-8.16c0-5.973 1.066-12 3.2-18.08a59.737 59.737 0 0 1 9.12-16.8c3.946-5.227 8.64-9.387 14.08-12.48 5.44-3.2 11.413-4.8 17.92-4.8 2.666 0 4.96.48 6.88 1.44 2.026.96 3.84 1.973 5.44 3.04 1.706.96 3.36 1.547 4.96 1.76.853-4.373 2.026-7.253 3.52-8.64 1.493-1.493 3.52-2.24 6.08-2.24 3.093 0 5.173 1.013 6.24 3.04 1.173 1.92 1.76 4.373 1.76 7.36 0 5.867-.16 11.627-.48 17.28a461.297 461.297 0 0 0-.32 17.44c0 4.693.266 9.547.8 14.56.533 5.013.8 9.867.8 14.56v3.36c0 2.347-.48 4.533-1.44 6.56-.854 1.92-2.827 2.88-5.92 2.88-2.88 0-4.96-.853-6.24-2.56-1.174-1.813-1.974-3.947-2.4-6.4-.32-2.56-.64-4.853-.96-6.88l-.64-.64a769.758 769.758 0 0 0-9.76 9.92c-2.774 2.987-5.867 5.387-9.28 7.2-3.414 1.707-7.84 2.56-13.28 2.56Zm-1.6-16.16c3.733 0 7.253-1.12 10.56-3.36 3.413-2.347 6.453-5.333 9.12-8.96 2.666-3.733 4.746-7.627 6.24-11.68 1.493-4.053 2.24-7.84 2.24-11.36 0-2.667-.374-5.333-1.12-8-.747-2.773-2.027-5.12-3.84-7.04-1.707-1.92-4.16-2.88-7.36-2.88-3.52 0-6.987 1.227-10.4 3.68-3.307 2.453-6.294 5.6-8.96 9.44-2.667 3.733-4.8 7.68-6.4 11.84-1.6 4.053-2.4 7.733-2.4 11.04 0 2.667.373 5.333 1.12 8 .853 2.667 2.186 4.907 4 6.72 1.813 1.707 4.213 2.56 7.2 2.56Zm77.66 16.16c-1.92 0-3.36-.64-4.32-1.92-.96-1.28-1.6-2.773-1.92-4.48a95.227 95.227 0 0 0-.96-4.8v-11.84c0-5.973.266-12 .8-18.08.533-6.187.8-12.213.8-18.08 0-2.773-.267-5.44-.8-8-.534-2.56-.8-5.173-.8-7.84v-4.32c.853-1.6 1.973-2.773 3.36-3.52 1.493-.747 3.04-1.12 4.64-1.12 2.346 0 4.106.693 5.28 2.08 1.173 1.28 1.973 2.827 2.4 4.64a705.27 705.27 0 0 1 1.44 4.96c.426 1.387 1.12 2.187 2.08 2.4 3.093-2.027 6.026-4 8.8-5.92 2.88-1.92 5.866-3.467 8.96-4.64 3.2-1.28 6.72-1.92 10.56-1.92 1.92 0 3.946.427 6.08 1.28 2.24.853 4.16 2.08 5.76 3.68 1.6 1.493 2.4 3.36 2.4 5.6 0 2.773-1.12 4.8-3.36 6.08-2.134 1.28-4.16 1.92-6.08 1.92a8.799 8.799 0 0 1-3.68-.8 8.802 8.802 0 0 0-3.68-.8c-3.734 0-7.254.96-10.56 2.88-3.2 1.813-6.027 4-8.48 6.56-2.454 2.56-4.427 4.96-5.92 7.2-.427.96-.747 2.56-.96 4.8-.214 2.24-.374 4.8-.48 7.68-.107 2.773-.214 5.493-.32 8.16 0 2.667-.054 4.96-.16 6.88a64.057 64.057 0 0 1-1.12 10.24c-.534 3.2-1.547 5.867-3.04 8-1.494 2.027-3.734 3.04-6.72 3.04Zm83.884 1.6c-3.307 0-5.76-1.013-7.36-3.04-1.6-2.027-2.667-4.48-3.2-7.36-.427-2.987-.64-5.707-.64-8.16v-6.08c0-6.72.106-13.493.32-20.32.32-6.827.533-14.187.64-22.08-2.667.107-4.96.267-6.88.48-1.814.213-3.68.32-5.6.32-4.907 0-7.36-2.4-7.36-7.2 0-1.813.32-3.52.96-5.12.64-1.707 1.973-2.773 3.999-3.2l14.081-3.2c1.813-.427 2.986-1.547 3.52-3.36.64-1.92.96-4.107.96-6.56.106-2.56.266-5.067.48-7.52.32-2.453 1.12-4.48 2.4-6.08 1.386-1.6 3.68-2.4 6.88-2.4 2.24 0 3.893.64 4.96 1.92 1.173 1.173 1.973 2.613 2.4 4.32.426 1.707.64 3.36.64 4.96 0 .213-.054.96-.16 2.24a40.075 40.075 0 0 1-.48 3.52c-.107 1.173-.16 1.92-.16 2.24v5.12h19.52c2.346 0 4.16 1.12 5.44 3.36 1.28 2.133 1.92 4.32 1.92 6.56 0 .427-.16 1.227-.48 2.4-.32 1.173-.907 2.293-1.76 3.36-.854.96-2.027 1.44-3.52 1.44h-20.48c-.107 0-.32.107-.64.32-.32.107-.694.427-1.12.96l-.32.48c-.534 2.88-.907 5.227-1.12 7.04a89.925 89.925 0 0 0-.48 4.8v5.12c0 5.867.106 11.733.32 17.6.32 5.867.48 12.053.48 18.56 0 2.133-.16 4.32-.48 6.56-.32 2.24-1.067 4.107-2.241 5.6-1.173 1.6-2.986 2.4-5.439 2.4Zm-393.378 196c-2.987 0-5.227-1.013-6.72-3.04-1.387-2.133-2.08-4.587-2.08-7.36 0-6.4.373-12.907 1.12-19.52.853-6.613 1.28-13.013 1.28-19.2 0-10.667-.427-21.067-1.28-31.2-.747-10.133-1.12-20.533-1.12-31.2v-4.16c.747-1.707 1.76-2.88 3.04-3.52 1.387-.747 2.827-1.12 4.32-1.12 2.453 0 4.427.853 5.92 2.56 1.6 1.707 2.827 3.787 3.68 6.24a36.916 36.916 0 0 1 1.76 7.36c.427 2.453.64 4.48.64 6.08v53.12l.96.96.16-.16c2.88-2.88 5.6-6.133 8.16-9.76a207.374 207.374 0 0 1 8.16-10.4c2.88-3.413 6.027-6.24 9.44-8.48 3.52-2.24 7.573-3.36 12.16-3.36 4.053 0 7.52 1.067 10.4 3.2 2.987 2.133 5.333 4.907 7.04 8.32a34.825 34.825 0 0 1 3.36 10.72l4.8 33.92v4.8c0 1.707-.107 3.52-.32 5.44-.213 1.813-.853 3.36-1.92 4.64-.96 1.28-2.667 1.92-5.12 1.92-2.773 0-4.96-1.067-6.56-3.2-1.493-2.24-2.56-4.96-3.2-8.16a74.072 74.072 0 0 1-1.28-9.44c-.213-3.093-.427-5.547-.64-7.36-.107-.747-.267-2.133-.48-4.16-.107-2.027-.32-4.373-.64-7.04a82.404 82.404 0 0 0-1.28-7.68c-.533-2.56-1.227-4.64-2.08-6.24-.747-1.707-1.707-2.56-2.88-2.56-1.813 0-3.627.747-5.44 2.24-1.813 1.493-3.307 3.04-4.48 4.64-5.547 7.253-10.88 14.933-16 23.04-5.013 8-10.027 15.84-15.04 23.52a17.992 17.992 0 0 1-3.2 3.84c-1.28 1.173-2.827 1.76-4.64 1.76Zm132.343.8c-7.68 0-14.827-1.653-21.44-4.96-6.614-3.307-11.947-8-16-14.08-4.054-6.08-6.08-13.173-6.08-21.28 0-5.547 1.12-10.667 3.36-15.36 2.346-4.8 5.28-9.28 8.8-13.44a233.304 233.304 0 0 1 10.88-11.68c1.92-1.92 4.213-3.307 6.88-4.16a23.917 23.917 0 0 1 8.16-1.44c6.933 0 13.6.747 20 2.24 6.4 1.493 12.106 3.947 17.12 7.36 5.12 3.307 9.173 7.733 12.16 13.28 2.986 5.44 4.48 12.107 4.48 20 0 6.507-1.387 12.427-4.16 17.76-2.774 5.333-6.507 9.92-11.201 13.76-4.586 3.84-9.759 6.827-15.519 8.96a51.302 51.302 0 0 1-17.44 3.04Zm-3.2-17.76c5.866 0 11.413-1.013 16.64-3.04 5.226-2.133 9.493-5.28 12.8-9.44 3.413-4.267 5.12-9.493 5.12-15.68 0-5.44-1.6-9.973-4.8-13.6-3.094-3.627-7.04-6.293-11.84-8-4.8-1.813-9.707-2.72-14.72-2.72-2.56 0-4.64.373-6.24 1.12-1.6.747-3.04 1.76-4.32 3.04l-4.48 4.48a62.766 62.766 0 0 0-8 10.24c-2.347 3.627-3.52 7.787-3.52 12.48 0 7.467 2.24 12.853 6.72 16.16 4.48 3.307 10.026 4.96 16.64 4.96Zm81.557 16.16c-2.347 0-4.427-.747-6.24-2.24-1.707-1.6-2.56-3.573-2.56-5.92 0-3.52.107-6.933.32-10.24.32-3.307.48-6.667.48-10.08v-10.56c0-4.373-.16-8.693-.48-12.96a59.713 59.713 0 0 0-2.08-12.96c-.427-1.28-.8-2.613-1.12-4a31.69 31.69 0 0 1-.32-4.48c0-2.133.533-4.267 1.6-6.4 1.067-2.24 2.987-3.36 5.76-3.36 2.24 0 4.053.853 5.44 2.56 1.387 1.6 2.453 3.627 3.2 6.08a41.31 41.31 0 0 1 1.6 7.2c.427 2.347.8 4.32 1.12 5.92.213 1.387.533 2.88.96 4.48.427 1.6.64 3.147.64 4.64 0 .107.107.427.32.96l.64 1.6a454.772 454.772 0 0 1 4.64-8 68.465 68.465 0 0 1 5.92-8.32c2.24-2.667 4.693-4.853 7.36-6.56 2.773-1.707 5.813-2.56 9.12-2.56 3.413 0 5.973.853 7.68 2.56 1.813 1.6 3.253 3.627 4.32 6.08l3.2 7.04c.427 1.067.693 2.187.8 3.36.107 1.067.373 2.187.8 3.36l1.76-2.56a431.838 431.838 0 0 1 7.2-9.76c2.773-3.627 5.867-6.72 9.28-9.28 3.413-2.667 7.253-4 11.52-4 3.413 0 6.293 1.013 8.64 3.04 2.453 1.92 4.427 4.427 5.92 7.52a40.012 40.012 0 0 1 3.52 9.6c.747 3.307 1.12 6.347 1.12 9.12v33.92c0 1.6-.267 3.36-.8 5.28a11.352 11.352 0 0 1-2.4 4.8c-1.173 1.28-2.827 1.92-4.96 1.92-2.453 0-4.427-.853-5.92-2.56-1.493-1.707-2.24-3.52-2.24-5.44v-29.12c0-.32-.053-1.013-.16-2.08a42.68 42.68 0 0 0-.48-3.36c-.107-1.173-.16-2.027-.16-2.56 0-.853-.107-2.187-.32-4a20.01 20.01 0 0 0-1.28-5.12c-.64-1.6-1.6-2.4-2.88-2.4h-1.44c-3.2 2.773-5.6 5.44-7.2 8-1.6 2.453-2.827 4.907-3.68 7.36a114.864 114.864 0 0 0-2.4 7.84c-.747 2.667-1.813 5.6-3.2 8.8-.747 2.773-1.973 5.387-3.68 7.84-1.6 2.347-3.84 3.52-6.72 3.52-2.773 0-4.907-.747-6.4-2.24-1.387-1.6-2.453-3.52-3.2-5.76a93.552 93.552 0 0 1-1.6-6.4c-.213-.96-.587-2.56-1.12-4.8-.533-2.24-1.12-4.693-1.76-7.36a295.61 295.61 0 0 0-1.6-7.52c-.533-2.453-.907-4.267-1.12-5.44-.64-.96-1.28-1.44-1.92-1.44-.96 0-1.973.693-3.04 2.08s-1.867 2.72-2.4 4c-.64.96-1.547 2.667-2.72 5.12a404.573 404.573 0 0 0-3.36 6.88l-1.92 4.48c-.213.64-.853 2.187-1.92 4.64-.96 2.453-2.08 5.28-3.36 8.48-1.28 3.093-2.453 5.92-3.52 8.48-1.067 2.56-1.76 4.267-2.08 5.12a55.647 55.647 0 0 1-3.36 5.6c-1.067 1.707-2.987 2.56-5.76 2.56Zm162.405 4c-7.68 0-14.773-1.173-21.28-3.52-6.4-2.453-11.573-6.293-15.52-11.52-3.947-5.333-5.92-12.213-5.92-20.64 0-6.4 1.013-12.64 3.04-18.72 2.133-6.08 5.173-11.573 9.12-16.48 3.947-5.013 8.693-8.96 14.24-11.84 5.547-2.987 11.787-4.48 18.72-4.48 4.693 0 9.067.96 13.12 2.88 4.16 1.813 7.467 4.533 9.92 8.16 2.56 3.52 3.84 7.84 3.84 12.96 0 4.907-1.013 9.6-3.04 14.08s-4.8 8.48-8.32 12c-3.52 3.52-7.52 6.293-12 8.32a33.864 33.864 0 0 1-13.76 2.88c-.747 0-2.4-.16-4.96-.48-2.56-.427-4.587-.853-6.08-1.28-1.067-.213-1.92-.64-2.56-1.28a16.557 16.557 0 0 0-1.12-.48c-.533-.32-.907-.48-1.12-.48.747 3.093 2.293 5.707 4.64 7.84 2.453 2.027 5.227 3.52 8.32 4.48 3.2.96 6.24 1.44 9.12 1.44a58.13 58.13 0 0 0 6.08-.32c2.133-.32 4.373-.48 6.72-.48 2.347 0 4.373.64 6.08 1.92 1.707 1.28 2.56 3.36 2.56 6.24 0 2.347-.747 4.16-2.24 5.44-1.387 1.28-3.2 2.133-5.44 2.56-2.133.427-4.32.64-6.56.64-2.133.107-4 .16-5.6.16Zm-7.84-44.48c3.2 0 6.347-.587 9.44-1.76 3.2-1.28 5.813-3.147 7.84-5.6 2.133-2.453 3.2-5.493 3.2-9.12 0-3.093-.96-5.547-2.88-7.36-1.813-1.813-4.267-2.72-7.36-2.72-2.773 0-5.707.747-8.8 2.24-3.093 1.493-6.027 3.413-8.8 5.76-2.667 2.347-4.853 4.907-6.56 7.68-1.707 2.667-2.56 5.28-2.56 7.84v.64c2.773.427 5.547.96 8.32 1.6 2.773.533 5.493.8 8.16.8Z" fill="#000"/><defs><linearGradient id="b" x1="119.496" y1="-27.504" x2="655.966" y2="508.966" gradientUnits="userSpaceOnUse"><stop stop-color="#EAD0C6"/><stop offset="1" stop-color="#C7DAD2"/></linearGradient><linearGradient id="d" x1="0" y1="389" x2="512" y2="389" gradientUnits="userSpaceOnUse"><stop stop-color="#EB967B"/><stop offset="1" stop-color="#EAD0C6"/></linearGradient><filter id="a" x="27.522" y=".088" width="728.305" height="684.896" filterUnits="userSpaceOnUse" color-interpolation-filters="sRGB"><feFlood flood-opacity="0" result="BackgroundImageFix"/><feColorMatrix in="SourceAlpha" values="0 0 0 0 0 0 0 0 0 0 0 0 0 0 0 0 0 0 127 0" result="hardAlpha"/><feOffset dx="4" dy="4"/><feGaussianBlur stdDeviation="2"/><feComposite in2="hardAlpha" operator="out"/><feColorMatrix values="0 0 0 0 0 0 0 0 0 0 0 0 0 0 0 0 0 0 0.3 0"/><feBlend in2="BackgroundImageFix" result="effect1_dropShadow_0_1"/><feBlend in="SourceGraphic" in2="effect1_dropShadow_0_1" result="shape"/></filter><filter id="c" x="0" y="160" width="520" height="466" filterUnits="userSpaceOnUse" color-interpolation-filters="sRGB"><feFlood flood-opacity="0" result="BackgroundImageFix"/><feColorMatrix in="SourceAlpha" values="0 0 0 0 0 0 0 0 0 0 0 0 0 0 0 0 0 0 127 0" result="hardAlpha"/><feOffset dx="4" dy="4"/><feGaussianBlur stdDeviation="2"/><feComposite in2="hardAlpha" operator="out"/><feColorMatrix values="0 0 0 0 0 0 0 0 0 0 0 0 0 0 0 0 0 0 0.3 0"/><feBlend in2="BackgroundImageFix" result="effect1_dropShadow_0_1"/><feBlend in="SourceGraphic" in2="effect1_dropShadow_0_1" result="shape"/></filter></defs></svg>